<svg xmlns="http://www.w3.org/2000/svg" viewBox="0 0 512 512" fill="none">
  <defs>
    <linearGradient id="g" x1="96" y1="64" x2="416" y2="448" gradientUnits="userSpaceOnUse">
      <stop stop-color="#ec4899"/>
      <stop offset="1" stop-color="#be185d"/>
    </linearGradient>
    <filter id="glow" x="-20%" y="-20%" width="140%" height="140%">
      <feGaussianBlur stdDeviation="12" result="b"/>
      <feMerge>
        <feMergeNode in="b"/>
        <feMergeNode in="SourceGraphic"/>
      </feMerge>
    </filter>
  </defs>
  <rect width="512" height="512" rx="112" fill="#0b0910"/>
  <rect x="24" y="24" width="464" height="464" rx="96" fill="url(#g)" filter="url(#glow)"/>
  <path d="M256 132c-18 0-34 14-34 32 0 10 4 18 10 24-28 8-48 32-48 62 0 36 30 66 66 66h4c36 0 66-30 66-66 0-30-20-54-48-62 6-6 10-14 10-24 0-18-16-32-34-32z" fill="#fff" opacity=".95"/>
  <path d="M196 318c8 22 28 38 52 42" stroke="#fce7f3" stroke-width="14" stroke-linecap="round"/>
  <rect x="148" y="352" width="216" height="28" rx="14" fill="#fff" opacity=".22"/>
  <rect x="188" y="360" width="136" height="12" rx="6" fill="#fff" opacity=".85"/>
</svg>
