<svg xmlns="http://www.w3.org/2000/svg" viewBox="0 0 1200 320" fill="none">
  <defs>
    <linearGradient id="g" x1="40" y1="20" x2="280" y2="300" gradientUnits="userSpaceOnUse">
      <stop stop-color="#ec4899"/>
      <stop offset="1" stop-color="#be185d"/>
    </linearGradient>
  </defs>
  <rect x="16" y="16" width="288" height="288" rx="64" fill="url(#g)"/>
  <path d="M160 92c-18 0-34 14-34 32 0 10 4 18 10 24-28 8-48 32-48 62 0 36 30 66 66 66h4c36 0 66-30 66-66 0-30-20-54-48-62 6-6 10-14 10-24 0-18-16-32-34-32z" fill="#fff" opacity=".95"/>
  <rect x="96" y="248" width="128" height="16" rx="8" fill="#fff" opacity=".85"/>
  <text x="360" y="210" fill="#f2eef6" font-family="Space Grotesk, Inter, system-ui, sans-serif" font-size="148" font-weight="600" letter-spacing="-4">Glow</text>
  <text x="364" y="268" fill="#b3a9bf" font-family="Inter, system-ui, sans-serif" font-size="34" font-weight="500" letter-spacing="1">glow-uk.com</text>
</svg>
